<svg width="25" height="24" viewBox="0 0 25 24" fill="none" xmlns="http://www.w3.org/2000/svg">
<g id="arcticons:budgetwatch">
<path id="Vector" d="M17.0383 9.915C16.844 8.36306 17.0666 6.78738 17.6833 5.35C17.7733 5.17 17.9433 4.96 17.7733 4.765C17.6033 4.57 17.3683 4.705 17.1683 4.765C16.6526 4.915 16.1736 5.17014 15.7614 5.51435C15.3493 5.85856 15.0128 6.28438 14.7733 6.765C14.6383 7 14.5433 7.235 14.1783 7.185C12.9463 7.02426 11.7004 7.00078 10.4633 7.115C9.53551 7.17092 8.62959 7.41954 7.80326 7.845C6.52911 8.54636 5.52988 9.65838 4.96826 11C4.941 10.934 4.92089 10.8653 4.90826 10.795C4.76826 10.145 4.40826 9.795 3.84326 9.88H3.83326C3.70434 9.89624 3.58008 9.93861 3.4681 10.0045C3.35612 10.0704 3.25877 10.1585 3.182 10.2634C3.10524 10.3682 3.05068 10.4876 3.02167 10.6143C2.99266 10.7409 2.98979 10.8722 3.01326 11C2.98308 11.5533 3.0874 12.1056 3.31728 12.6098C3.54716 13.114 3.89576 13.555 4.33326 13.895C4.49255 14.0041 4.60639 14.1677 4.65326 14.355C4.94715 15.5922 5.62649 16.704 6.59326 17.53C6.76803 17.6731 6.90501 17.8568 6.99219 18.0652C7.07937 18.2735 7.11407 18.5001 7.09326 18.725C6.95826 20.085 7.49826 20.775 8.97826 20.975C9.09197 21.0018 9.20717 21.0219 9.32326 21.035C10.3233 21.24 10.2133 21.235 10.3983 20.325C10.5233 19.715 10.7683 19.535 11.3983 19.63C11.9084 19.7 12.4237 19.7251 12.9383 19.705C14.1733 19.705 14.1783 19.705 14.5133 20.86C14.5733 21.07 14.6183 21.3 14.9133 21.245C15.5977 21.1802 16.2704 21.0238 16.9133 20.78C17.1572 20.6974 17.3705 20.5428 17.5249 20.3366C17.6793 20.1305 17.7676 19.8824 17.7783 19.625C17.6733 18.56 18.0183 18.125 18.6583 17.33C18.7483 17.225 18.9383 17.04 19.0433 16.89C19.2323 16.5896 19.491 16.3392 19.7974 16.1599C20.1037 15.9806 20.4487 15.8777 20.8033 15.86C21.4083 15.83 21.6783 15.645 21.6783 14.95V12.85C21.7008 12.6328 21.6368 12.4155 21.5001 12.2451C21.3635 12.0748 21.1652 11.9652 20.9483 11.94C20.6061 11.8718 20.2861 11.7202 20.0166 11.4986C19.7471 11.2771 19.5364 10.9925 19.4033 10.67C18.8719 9.62813 18.0528 8.7605 17.0433 8.17M17.8583 13.6C17.6216 13.5858 17.4003 13.4784 17.2428 13.3012C17.0854 13.124 17.0046 12.8916 17.0183 12.655C17.0312 12.4224 17.1358 12.2044 17.3092 12.0488C17.4826 11.8932 17.7106 11.8127 17.9433 11.825C18.0645 11.8258 18.1844 11.8512 18.2955 11.8997C18.4067 11.9482 18.5068 12.0188 18.5898 12.1072C18.6729 12.1955 18.7371 12.2999 18.7786 12.4138C18.82 12.5278 18.8379 12.649 18.8312 12.77C18.8244 12.8911 18.7931 13.0096 18.7391 13.1182C18.6852 13.2268 18.6097 13.3233 18.5173 13.4018C18.4249 13.4804 18.3175 13.5394 18.2017 13.5751C18.0858 13.6109 17.9639 13.6228 17.8433 13.61L17.8583 13.6Z" stroke="white" stroke-linecap="round" stroke-linejoin="round"/>
<path id="Vector_2" d="M8.80332 7.41001C8.40001 7.14932 8.08625 6.77133 7.90427 6.32692C7.72229 5.88251 7.68083 5.39302 7.78547 4.92433C7.89011 4.45565 8.13583 4.03027 8.48955 3.70546C8.84327 3.38066 9.288 3.17201 9.76389 3.10762C10.2398 3.04323 10.724 3.12617 11.1513 3.3453C11.5786 3.56442 11.9285 3.9092 12.154 4.33322C12.3794 4.75724 12.4695 5.24015 12.4122 5.71694C12.3549 6.19373 12.1528 6.64151 11.8333 7.00001" stroke="white" stroke-linecap="round" stroke-linejoin="round"/>
</g>
</svg>
