<svg width="25" height="24" viewBox="0 0 25 24" fill="none" xmlns="http://www.w3.org/2000/svg">
<g id="ant-design:safety-outlined">
<path id="Vector" d="M4.97112 5.62416L4.871 5.65946V5.76562V13.5C4.871 17.6211 8.21237 20.9625 12.3335 20.9625C16.4546 20.9625 19.796 17.6211 19.796 13.5V5.76562V5.65946L19.6959 5.62416L12.3834 3.04603L12.3335 3.02845L12.2836 3.04603L4.97112 5.62416ZM3.4835 4.60811L12.3335 1.65811L21.1835 4.60811V13.5C21.1835 18.3883 17.2217 22.35 12.3335 22.35C7.44524 22.35 3.4835 18.3883 3.4835 13.5V4.60811Z" fill="white" stroke="#5D55FF" stroke-width="0.3"/>
<path id="Vector_2" d="M9.09576 11.241L9.096 11.2412L11.5476 13.6928L11.6536 13.7988L11.7597 13.6928L16.3698 9.085L16.37 9.08487C16.43 9.02472 16.5013 8.977 16.5798 8.94444C16.6583 8.91188 16.7425 8.89512 16.8275 8.89512C16.9124 8.89512 16.9966 8.91188 17.0751 8.94444C17.1536 8.977 17.2249 9.02472 17.285 9.08487L17.2851 9.08497L17.3507 9.1506L17.3508 9.1507C17.4109 9.21074 17.4587 9.28205 17.4912 9.36055L17.6298 9.30309L17.4912 9.36056C17.5238 9.43906 17.5405 9.52322 17.5405 9.6082C17.5405 9.69319 17.5238 9.77735 17.4912 9.85585L17.6298 9.91332L17.4912 9.85585C17.4587 9.93436 17.4109 10.0057 17.3508 10.0657L17.3507 10.0658L12.1124 15.3041L12.1123 15.3042C12.0523 15.3643 11.981 15.4121 11.9025 15.4446C11.8239 15.4772 11.7398 15.4939 11.6548 15.4939C11.5698 15.4939 11.4857 15.4772 11.4072 15.4446C11.3286 15.4121 11.2573 15.3643 11.1973 15.3042L11.1972 15.3041L11.148 15.2549L8.11517 12.2221L8.11492 12.2218C8.05036 12.1576 7.99914 12.0812 7.96418 11.997C7.92922 11.9129 7.91123 11.8227 7.91123 11.7316C7.91123 11.6405 7.92922 11.5504 7.96418 11.4662C7.99914 11.3821 8.05036 11.3057 8.11492 11.2415L8.11541 11.241C8.17967 11.1764 8.25606 11.1252 8.34018 11.0902C8.42429 11.0553 8.51449 11.0373 8.60558 11.0373C8.69668 11.0373 8.78687 11.0553 8.87099 11.0902C8.95511 11.1252 9.03149 11.1764 9.09576 11.241Z" fill="white" stroke="white" stroke-width="0.3"/>
</g>
</svg>
